# xmcd CD database file
#
# Track frame offsets:
#	150
#	13197
#	27665
#	39225
#	53810
#	65607
#	77202
#	91540
#	105090
#	117702
#	133077
#	147077
#	161430
#	170227
#	180260
#	195667
#	209822
#	223082
#
# Disc length: 3168 seconds
#
# Revision: 1
# Processed by: cddbd v1.5PL3 Copyright (c) Steve Scherf et al.
# Submitted via: CDex 1.51
#
DISCID=020c5e12
DTITLE=Baby Dodds Trio - Jazz A'La Creole
DYEAR=1940
DGENRE=Jazz
TTITLE0=Wolverine Blues
TTITLE1=Buddy Bolden's Blues
TTITLE2=Drum Improvisation #1
TTITLE3=Albert's Blues
TTITLE4=Mannhattan Stomp
TTITLE5=Drum Improvisation #2
TTITLE6=Buddy Bolden's Blues
TTITLE7=Wolverine Blues
TTITLE8=Mo Pas Lemme Ca
TTITLE9=Salee Dame
TTITLE10=Les Ognons
TTITLE11=Creole Blues
TTITLE12=Mo Pas Lemme Ca
TTITLE13=Salee Dame
TTITLE14=Chocko Me Feendo Hey
TTITLE15=Tootie Ma Is A Big Fine Thing
TTITLE16=My Indian Red
TTITLE17=Corinne Died on the Battlefield
EXTD=YEAR: 1940
EXTT0=
EXTT1=
EXTT2=
EXTT3=
EXTT4=
EXTT5=
EXTT6=
EXTT7=
EXTT8=
EXTT9=
EXTT10=
EXTT11=
EXTT12=
EXTT13=
EXTT14=
EXTT15=
EXTT16=
EXTT17=
PLAYORDER=
